<svg xmlns="http://www.w3.org/2000/svg" viewBox="0 0 65.42 65.38"><defs><style>.cls-1{fill:#66433b;}.cls-2{fill:#fff;}</style></defs><g id="Layer_2" data-name="Layer 2"><g id="Layer_1-2" data-name="Layer 1"><path class="cls-1" d="M65.42,32.69A32.71,32.71,0,1,1,32.72,0,32.66,32.66,0,0,1,65.42,32.69ZM58,33a25,25,0,0,1-7.53,17.66,24.6,24.6,0,0,1-17.77,7.29,24.34,24.34,0,0,1-15.94-5.65A25.14,25.14,0,0,1,7.4,33c-2.35,0-2.95,1.64-3.49,3.53-1.38-3-1.67-3.31-3.09-3.33.67,12,5.86,21.46,16.48,27.24C29,66.8,40.74,66,51.59,58.2c8.49-6.09,12.6-14.71,13-25.23-2.13.28-2.57,1.86-3.15,3.41C60.92,34.56,60.17,33.12,58,33ZM7.37,32.44A25.37,25.37,0,0,1,31,7.53a24.39,24.39,0,0,1,16.6,4.79c6.72,5,10.08,11.75,10.46,20.12A4.13,4.13,0,0,0,61.45,29c.4,1.72,1.17,3,3,3.28A30.71,30.71,0,0,0,49.22,5.6c-11.5-6.72-23.17-6.48-34.29.83C5.82,12.42,1.36,21.26.85,32.24c1.85-.41,2.58-1.63,3-3.22A3.73,3.73,0,0,0,7.37,32.44Zm32-5.36H35.05a3.19,3.19,0,0,1-.12-.48c0-.57,0-1.13,0-1.7,0-1.08.36-1.37,1.46-1.38h2.88V18.67c-1.87,0-3.7-.14-5.5,0a5,5,0,0,0-4.66,4.54c-.19,1.22-.18,2.48-.27,3.83H26.11c0,1.8,0,3.49,0,5.17,0,.18.37.47.58.49.71.07,1.43,0,2.22,0v14h5.73v-14c1.25,0,2.37,0,3.5,0,.26,0,.71-.33.73-.55C39.1,30.53,39.22,28.87,39.37,27.08Z"/><path class="cls-2" d="M39.37,27.08c-.15,1.79-.27,3.45-.47,5.1,0,.22-.47.54-.73.55-1.13.06-2.25,0-3.5,0v14H28.94v-14c-.79,0-1.51,0-2.22,0-.21,0-.57-.31-.58-.49,0-1.68,0-3.37,0-5.17h2.72c.09-1.35.08-2.61.27-3.83a5,5,0,0,1,4.66-4.54c1.8-.17,3.63,0,5.5,0v4.85H36.38c-1.1,0-1.41.3-1.46,1.38,0,.57,0,1.13,0,1.7a3.19,3.19,0,0,0,.12.48Z"/></g></g></svg>