<svg xmlns="http://www.w3.org/2000/svg" viewBox="0 0 174.19 174.19"><defs><style>.cls-1{fill:#66433b;}.cls-2{fill:#fff;}</style></defs><g id="Layer_2" data-name="Layer 2"><g id="Layer_1-2" data-name="Layer 1"><g id="Layer_2-2" data-name="Layer 2"><g id="Layer_1-2-2" data-name="Layer 1-2"><path class="cls-1" d="M87.28,0A87.1,87.1,0,1,1,0,86.91V86.7A87.21,87.21,0,0,1,87.28,0ZM2.67,88.08c-.72,24,12.38,56.48,44.38,73.61a84.17,84.17,0,0,0,94.16-9.43c20-16.65,30-38.26,30.77-64.34-5.68.69-6.77,5-8.37,9.06-1.25-4.93-3.38-8.63-9.05-9.17a68,68,0,0,1-9.28,33.28,67,67,0,0,1-24.72,24.46,65.85,65.85,0,0,1-33.36,8.82,65.41,65.41,0,0,1-42.28-14.9A66.92,66.92,0,0,1,19.74,87.92c-6.15,0-8,4.29-9.45,9.17C8.9,92.8,7.59,89,2.67,88.08Zm169.5-1.78c-1.82-32.67-15.83-57.87-44.28-73.25C96.58-3.73,65.44-1.41,36.66,19.34,14.33,35.33,3.49,58.19,2.29,86a10.66,10.66,0,0,0,8-8.63c1.09,5.33,3.78,8.58,9.29,9A67.41,67.41,0,0,1,83,20a65.22,65.22,0,0,1,44.33,13.32c17.53,13.32,26.3,31.17,27.26,53.28a10.79,10.79,0,0,0,9.11-9.38,10.18,10.18,0,0,0,8.42,9ZM66.05,56c-5.78-.56-9,3.12-11.17,8a20.68,20.68,0,0,0,1.74,19.48c9.77,16.86,23.18,29.31,42.62,34a19.29,19.29,0,0,0,17-3.57,12.21,12.21,0,0,0,4.53-11.35,2.9,2.9,0,0,0-1.44-2.1c-4.47-2.27-9-4.45-13.56-6.56a3.28,3.28,0,0,0-4.37,1.28c-1.38,1.89-3,3.62-4.42,5.49a2.67,2.67,0,0,1-3.52.83A45.49,45.49,0,0,1,74.6,86.86c-3.54-4.93-3.57-4.88.16-9.54a8.52,8.52,0,0,0,1.71-2.67,5.56,5.56,0,0,0,0-3.33C74.84,67.11,73,63,71.14,58.85a4,4,0,0,0-4.86-3A2,2,0,0,0,66.05,56Z"/></g></g><circle class="cls-1" cx="85.19" cy="83.24" r="51"/><g id="sDgFd9.tif"><path class="cls-2" d="M117.45,78q0,9.09,0,18.18a18.17,18.17,0,0,1-.89,5.06,24.35,24.35,0,0,1-4,7.71,37,37,0,0,1-4.65,5,60.19,60.19,0,0,1-13.38,9.15c-2.54,1.32-5.19,2.44-7.79,3.64a5.06,5.06,0,0,1-4.33-.16,90.55,90.55,0,0,1-9.09-4.4,55.57,55.57,0,0,1-14.74-11.39,25.83,25.83,0,0,1-5.43-9.2,20.47,20.47,0,0,1-.8-3.73,36.38,36.38,0,0,1-.22-4.31c0-11.26,0-22.53,0-33.8A4.19,4.19,0,0,1,55,55.68c1.89-.58,3.76-1.26,5.67-1.79,1.57-.44,3.17-.74,4.77-1q3.27-.6,6.56-1.1c1-.16,2-.2,3.08-.29,1.32-.12,2.65-.28,4-.33C81.29,51,83.5,51,85.71,51c2.38,0,4.77.12,7.15.28,1.77.12,3.53.38,5.29.61,1.32.16,2.64.33,3.95.56s2.79.53,4.17.84,2.74.6,4.07,1a44.94,44.94,0,0,1,5.28,1.91,3.31,3.31,0,0,1,1.83,3.21q0,9.3,0,18.61Zm-43.3,6.54V92.8c0,2,0,4,0,6a1.14,1.14,0,0,0,.89,1.23,2.23,2.23,0,0,0,.63.09q8.85,0,17.7,0a2.67,2.67,0,0,0,.83-.17,1,1,0,0,0,.7-1c0-1.57,0-3.14,0-4.7a1,1,0,0,0-1-1.06c-.33,0-.67-.05-1-.05H82.05c-1,0-1,0-1-1q0-10.8,0-21.6c0-1.09-.47-1.55-1.56-1.56H75.71c-1.09,0-1.56.48-1.56,1.56C74.14,75.26,74.15,79.91,74.15,84.57Z"/></g><g id="wLiytW"><path class="cls-1" d="M84.7,20.24h3c2.89.46,5.79,1,8.69,1.38A66,66,0,0,1,151.8,77.06c.44,2.9.93,5.79,1.39,8.69v3c-.46,2.9-.95,5.79-1.39,8.69a66,66,0,0,1-55.43,55.44c-2.9.43-5.8.92-8.69,1.39h-3c-2.89-.47-5.79-1-8.69-1.39A66,66,0,0,1,20.58,97.41c-.44-2.9-.93-5.79-1.39-8.69v-3c.46-2.9.95-5.79,1.39-8.69A66,66,0,0,1,76,21.62C78.91,21.19,81.81,20.7,84.7,20.24ZM130.28,85c0-7.95-3.2-15.08-8.94-21C112.7,55.18,102,50.94,89.7,50.33,76.72,49.69,65,52.78,54.78,61c-13.6,11-16,28.63-5.44,42.59,7.26,9.65,17.55,14.19,29.12,16.24,4.48.79,5.37,2.07,4.63,6.66-.27,1.63.17,3.38.29,5.07,1.7-.27,3.4-.52,5.09-.82a3.85,3.85,0,0,0,1.07-.5,138.06,138.06,0,0,0,32.95-25.17C127.63,99.7,130.2,93,130.28,85Z"/><path class="cls-2" d="M130.28,85c-.08,8-2.65,14.74-7.79,20.15a138.06,138.06,0,0,1-32.95,25.17,3.85,3.85,0,0,1-1.07.5c-1.69.3-3.39.55-5.09.82-.12-1.69-.56-3.44-.29-5.07.74-4.59-.15-5.87-4.63-6.66-11.57-2.05-21.86-6.59-29.12-16.24C38.83,89.67,41.18,72,54.78,61,65,52.78,76.72,49.69,89.7,50.33c12.31.61,23,4.85,31.64,13.67C127.08,69.88,130.27,77,130.28,85ZM95.1,86.74l-.83.25c-.62-.69-1.29-1.34-1.85-2.07-1.91-2.53-3.71-5.15-5.73-7.59a10.36,10.36,0,0,0-2.78-1.75c-.44,1-1.24,2-1.28,3-.14,4.56-.08,9.12,0,13.69,0,1.44-.25,3.42,2,3.1.7-.1,1.5-2,1.6-3.11.24-2.66.08-5.36.08-8l1-.22c.59.72,1.22,1.42,1.77,2.17,2,2.62,3.8,5.32,5.86,7.86.58.72,1.73,1,2.62,1.46.42-.9,1.19-1.78,1.22-2.68.12-4.76.15-9.53,0-14.28,0-1-1-2-1.58-3-.67,1-1.8,2-1.91,3.09A78.47,78.47,0,0,0,95.1,86.74Zm7.71-1c0,10.52,0,10.52,9.39,9.93.2,0,.45,0,.59,0,.67-.46,1.3-1,1.95-1.44-.59-.69-1.06-1.76-1.79-2a12.2,12.2,0,0,0-3.83-.22c-1.57,0-2.68-.17-2.67-2.2,0-1.87.93-2.44,2.58-2.43a15.64,15.64,0,0,0,3.56-.09c.79-.19,1.44-1,2.16-1.48-.69-.7-1.27-1.74-2.11-2a10.18,10.18,0,0,0-3.54-.12c-1.59.07-2.66-.21-2.64-2.21s1.15-2.3,2.69-2.33A12.53,12.53,0,0,0,112.4,79a8.77,8.77,0,0,0,2.35-1.64c-.73-.68-1.4-1.85-2.2-1.93a47.11,47.11,0,0,0-7.13-.07c-1.76.08-2.66,1.09-2.62,2.93C102.85,80.78,102.81,83.26,102.81,85.75Zm-43-.23h0c0,2.57-.16,5.16.09,7.71a3.18,3.18,0,0,0,1.95,2.28,47.48,47.48,0,0,0,8,0c.67,0,1.29-.91,1.94-1.4-.57-.7-1-1.69-1.75-2A7.68,7.68,0,0,0,67.13,92c-3.85,0-3.89,0-3.92-4,0-3.37.09-6.74-.12-10.09,0-.8-1.09-1.53-1.68-2.3-.52.75-1.44,1.46-1.49,2.23C59.73,80.36,59.84,82.94,59.84,85.52Zm15,0c0,2.58-.13,5.17.07,7.73.07.83,1,1.58,1.56,2.37.67-.79,1.9-1.56,1.92-2.37.18-5,.19-10.11,0-15.16,0-.85-1.26-1.67-1.94-2.5-.54.83-1.46,1.63-1.53,2.5C74.68,80.5,74.82,83,74.82,85.47Z"/><path class="cls-1" d="M95.1,86.74a78.47,78.47,0,0,1,.09-8.12c.11-1.08,1.24-2.06,1.91-3.09.55,1,1.54,2,1.58,3,.17,4.75.14,9.52,0,14.28,0,.9-.8,1.78-1.22,2.68-.89-.47-2-.74-2.62-1.46C92.8,91.54,91,88.84,89,86.22c-.55-.75-1.18-1.45-1.77-2.17l-1,.22c0,2.68.16,5.38-.08,8-.1,1.13-.9,3-1.6,3.11-2.22.32-2-1.66-2-3.1,0-4.57-.1-9.13,0-13.69,0-1,.84-2,1.28-3a10.36,10.36,0,0,1,2.78,1.75c2,2.44,3.82,5.06,5.73,7.59.56.73,1.23,1.38,1.85,2.07Z"/><path class="cls-1" d="M102.81,85.75c0-2.49,0-5,0-7.45,0-1.84.86-2.85,2.62-2.93a47.11,47.11,0,0,1,7.13.07c.8.08,1.47,1.25,2.2,1.93A8.77,8.77,0,0,1,112.4,79a12.53,12.53,0,0,1-3.25.11c-1.54,0-2.67.36-2.69,2.33s1.05,2.28,2.64,2.21a10.18,10.18,0,0,1,3.54.12c.84.28,1.42,1.32,2.11,2-.72.51-1.37,1.29-2.16,1.48a15.64,15.64,0,0,1-3.56.09c-1.65,0-2.56.56-2.58,2.43,0,2,1.1,2.24,2.67,2.2a12.2,12.2,0,0,1,3.83.22c.73.22,1.2,1.29,1.79,2-.65.49-1.28,1-1.95,1.44-.14.09-.39,0-.59,0C102.81,96.27,102.81,96.27,102.81,85.75Z"/><path class="cls-1" d="M59.84,85.52c0-2.58-.11-5.16.08-7.72,0-.77,1-1.48,1.49-2.23.59.77,1.64,1.5,1.68,2.3.21,3.35.1,6.72.12,10.09,0,4,.07,4,3.92,4a7.68,7.68,0,0,1,2.93.15c.73.32,1.18,1.31,1.75,2-.65.49-1.27,1.36-1.94,1.4a47.48,47.48,0,0,1-8,0,3.18,3.18,0,0,1-1.95-2.28c-.25-2.55-.09-5.14-.09-7.71Z"/><path class="cls-1" d="M74.82,85.47c0-2.48-.14-5,.08-7.43.07-.87,1-1.67,1.53-2.5.68.83,1.91,1.65,1.94,2.5.19,5,.18,10.11,0,15.16,0,.81-1.25,1.58-1.92,2.37C75.91,94.78,75,94,74.89,93.2,74.69,90.64,74.82,88.05,74.82,85.47Z"/></g></g></g></svg>