<svg xmlns="http://www.w3.org/2000/svg" viewBox="0 0 65.42 65.38"><defs><style>.cls-1{fill:#66433b;}.cls-2{fill:#fff;}</style></defs><g id="Layer_2" data-name="Layer 2"><g id="Layer_1-2" data-name="Layer 1"><path class="cls-1" d="M0,32.74A32.71,32.71,0,1,1,32.82,65.38,32.7,32.7,0,0,1,0,32.74Zm1,.41c-.33,7.48,3.4,19.61,15,26.51,11.4,6.81,23,6.69,34.22-.48,9.38-6,13.93-15,14.4-26.19-2.14.23-2.58,1.82-3.15,3.39-.51-1.81-1.25-3.28-3.36-3.4A25.32,25.32,0,0,1,32.83,57.92,24.56,24.56,0,0,1,16.57,52.1,25.1,25.1,0,0,1,7.41,33c-2.32,0-3,1.62-3.47,3.52C2.25,33.29,2.2,33.23,1,33.15Zm6.35-.45A25.45,25.45,0,0,1,31.14,7.52a24.48,24.48,0,0,1,16.64,5c6.59,5,9.89,11.7,10.25,19.94a4.12,4.12,0,0,0,3.45-3.36,3.7,3.7,0,0,0,2.91,3.3c.43-7.4-3.48-19.74-15.18-26.83A31.83,31.83,0,0,0,13.55,7.34C5.44,13.6,1.29,21.91.87,32.3a3.71,3.71,0,0,0,2.87-3.43A10.32,10.32,0,0,0,5,31.31,10.14,10.14,0,0,0,7.36,32.7Zm33.49,9.75c-.2,0-.23-.05-.26,0l-.81.25a22.24,22.24,0,0,1-9.48,1c-3.62-.51-6.3-2.71-7-6.3a17.52,17.52,0,0,1-.15-5.78c.6-4.14,2.85-7.18,7-8.34a15.28,15.28,0,0,1,5.22-.44A7.72,7.72,0,0,1,42.35,28a11.15,11.15,0,0,1,.4,6.49,7.4,7.4,0,0,1-1,2.39,1.46,1.46,0,0,1-1.28.5,1.75,1.75,0,0,1-.88-1.07,3.89,3.89,0,0,1-.11-1.49c.09-2.42.17-4.84.32-7.25,0-.62-.17-.88-.73-.95A42.59,42.59,0,0,0,33.38,26c-5.08.06-8.14,3.46-7.88,8.51.13,2.63,1.18,4.73,3.76,5.67a6.2,6.2,0,0,0,7.12-1.43,3.86,3.86,0,0,1,.39-.3,4,4,0,0,0,2.79,2.12,5.17,5.17,0,0,0,5.24-2.06,10.31,10.31,0,0,0,2-6.17c.26-5.51-2.53-10.1-7.45-11.89a15.66,15.66,0,0,0-4.59-.91c-5.22-.24-9.69,1.41-12.87,5.73a15.4,15.4,0,0,0-2.64,11.45c.46,3.71,2.12,6.75,5.45,8.56,5.09,2.76,10.39,2.4,15.7.54a.82.82,0,0,0,.43-.6C40.87,44.27,40.85,43.36,40.85,42.45Z"/><path class="cls-2" d="M40.85,42.45c0,.91,0,1.82,0,2.72a.82.82,0,0,1-.43.6c-5.31,1.86-10.61,2.22-15.7-.54-3.33-1.81-5-4.85-5.45-8.56a15.4,15.4,0,0,1,2.64-11.45c3.18-4.32,7.65-6,12.87-5.73a15.66,15.66,0,0,1,4.59.91c4.92,1.79,7.71,6.38,7.45,11.89a10.31,10.31,0,0,1-2,6.17,5.17,5.17,0,0,1-5.24,2.06,4,4,0,0,1-2.79-2.12,3.86,3.86,0,0,0-.39.3,6.2,6.2,0,0,1-7.12,1.43c-2.58-.94-3.63-3-3.76-5.67C25.24,29.41,28.3,26,33.38,26a42.59,42.59,0,0,1,5.69.66c.56.07.76.33.73.95-.15,2.41-.23,4.83-.32,7.25a3.89,3.89,0,0,0,.11,1.49,1.75,1.75,0,0,0,.88,1.07,1.46,1.46,0,0,0,1.28-.5,7.4,7.4,0,0,0,1-2.39,11.15,11.15,0,0,0-.4-6.49,7.72,7.72,0,0,0-6.94-5.15,15.28,15.28,0,0,0-5.22.44c-4.17,1.16-6.42,4.2-7,8.34a17.52,17.52,0,0,0,.15,5.78c.68,3.59,3.36,5.79,7,6.3a22.24,22.24,0,0,0,9.48-1l.81-.25S40.65,42.42,40.85,42.45Zm-5-13.13c-3-.8-5.3.12-6,2.42a9,9,0,0,0-.23,3.51,2.43,2.43,0,0,0,2.7,2.2c1.6,0,2.69-.91,3-2.79S35.68,31.13,35.85,29.32Z"/><path class="cls-1" d="M35.85,29.32c-.17,1.81-.25,3.59-.53,5.34s-1.39,2.8-3,2.79a2.43,2.43,0,0,1-2.7-2.2,9,9,0,0,1,.23-3.51C30.55,29.44,32.89,28.52,35.85,29.32Z"/></g></g></svg>