<svg xmlns="http://www.w3.org/2000/svg" viewBox="0 0 65.44 65.38"><defs><style>.cls-1{fill:#66433b;}.cls-2{fill:#fff;}</style></defs><g id="Layer_2" data-name="Layer 2"><g id="Layer_1-2" data-name="Layer 1"><path class="cls-1" d="M32.76,0A32.69,32.69,0,1,1,0,32.54,32.73,32.73,0,0,1,32.76,0ZM1,33.06c-.27,9,4.65,21.2,16.66,27.63A31.59,31.59,0,0,0,53,57.15C60.51,50.9,64.27,42.79,64.55,33c-2.13.26-2.54,1.88-3.14,3.4-.47-1.85-1.27-3.24-3.4-3.44a25.54,25.54,0,0,1-3.48,12.49,25.15,25.15,0,0,1-9.28,9.18,24.69,24.69,0,0,1-12.52,3.31,24.55,24.55,0,0,1-15.87-5.59A25.11,25.11,0,0,1,7.41,33c-2.31,0-3,1.61-3.55,3.44C3.34,34.83,2.85,33.41,1,33.06Zm63.62-.67C63.94,20.13,58.68,10.67,48,4.9,36.25-1.4,24.56-.53,13.76,7.26c-8.38,6-12.45,14.58-12.9,25a4,4,0,0,0,3-3.24c.41,2,1.42,3.22,3.49,3.37A25.3,25.3,0,0,1,31.16,7.52a24.49,24.49,0,0,1,16.64,5c6.58,5,9.87,11.7,10.23,20A4.05,4.05,0,0,0,61.45,29,3.82,3.82,0,0,0,64.61,32.39ZM24.79,21c-2.17-.21-3.38,1.17-4.19,3a7.76,7.76,0,0,0,.65,7.31c3.67,6.33,8.7,11,16,12.77a7.24,7.24,0,0,0,6.38-1.34,4.58,4.58,0,0,0,1.7-4.26,1.1,1.1,0,0,0-.54-.79c-1.68-.85-3.37-1.67-5.09-2.46a1.23,1.23,0,0,0-1.64.48c-.52.71-1.12,1.36-1.66,2.06a1,1,0,0,1-1.32.31A17.05,17.05,0,0,1,28,32.6c-1.33-1.85-1.34-1.83.06-3.58a3.15,3.15,0,0,0,.64-1,2.06,2.06,0,0,0,0-1.25c-.61-1.58-1.31-3.12-2-4.68A1.51,1.51,0,0,0,24.79,21Z"/><path class="cls-2" d="M24.79,21a1.51,1.51,0,0,1,2,1c.65,1.56,1.35,3.1,2,4.68a2.06,2.06,0,0,1,0,1.25A3.15,3.15,0,0,1,28,29c-1.4,1.75-1.39,1.73-.06,3.58a17.05,17.05,0,0,0,7.15,5.53,1,1,0,0,0,1.32-.31c.54-.7,1.14-1.35,1.66-2.06a1.23,1.23,0,0,1,1.64-.48c1.72.79,3.41,1.61,5.09,2.46a1.1,1.1,0,0,1,.54.79,4.58,4.58,0,0,1-1.7,4.26,7.24,7.24,0,0,1-6.38,1.34c-7.34-1.79-12.37-6.44-16-12.77a7.76,7.76,0,0,1-.65-7.31C21.41,22.21,22.62,20.83,24.79,21Z"/></g></g></svg>