<svg xmlns="http://www.w3.org/2000/svg" viewBox="0 0 65.48 65.38"><defs><style>.cls-1{fill:#66433b;}.cls-2{fill:#fff;}</style></defs><g id="Layer_2" data-name="Layer 2"><g id="Layer_1-2" data-name="Layer 1"><path class="cls-1" d="M32.76,0A32.69,32.69,0,1,1,0,32.67,32.79,32.79,0,0,1,32.76,0ZM.85,33c.63,11.81,5.57,21.08,15.72,27,11.4,6.62,23,6.24,34-1,9.11-6,13.54-15,14-25.92-2.14.19-2.56,1.83-3.18,3.37C61,34.51,60.13,33.13,58,33A25.28,25.28,0,0,1,33.21,57.91,24.54,24.54,0,0,1,17,52.37,25,25,0,0,1,7.45,32.92c-2.28,0-3,1.59-3.56,3.47C3.4,34.79,2.88,33.37.85,33Zm63.65-.63a31.77,31.77,0,0,0-52.18-24C3.66,15.52.65,26.13,1.1,32.21c1.61-.43,2.39-1.59,2.73-3.38C5,31.68,5.91,32.49,7.46,32.28A25.25,25.25,0,0,1,31,7.54a24.3,24.3,0,0,1,16.83,4.94c6.56,5,9.86,11.69,10.2,20A4.07,4.07,0,0,0,61.47,29,3.77,3.77,0,0,0,64.5,32.38Zm-44.58.3V40c0,.15,0,.31,0,.47a5.06,5.06,0,0,0,4.85,4.86q7.93.12,15.87,0a4.89,4.89,0,0,0,4.83-4.65c.12-5.18.17-10.37.06-15.55C45.48,22,43.35,20,40.14,20q-7.37-.1-14.74,0C22,20,20,22.16,19.93,25.52,19.9,27.91,19.92,30.29,19.92,32.68Z"/><path class="cls-2" d="M19.92,32.69c0-2.39,0-4.78,0-7.17C20,22.17,22,20,25.4,20q7.37-.09,14.73,0c3.21,0,5.35,2,5.42,5.19.12,5.18.08,10.37,0,15.55a4.89,4.89,0,0,1-4.82,4.66c-5.29.07-10.58.08-15.87,0A5.07,5.07,0,0,1,20,40.52c0-.16,0-.32,0-.47ZM32.81,22c-2.45,0-4.91,0-7.36,0a3.22,3.22,0,0,0-3.56,3.57q0,7.11,0,14.23a3.32,3.32,0,0,0,3.67,3.69H39.91c2.41,0,3.69-1.29,3.7-3.66q0-7.11,0-14.23C43.6,23.22,42.37,22,40,22S35.21,22,32.81,22Z"/><path class="cls-1" d="M32.81,22c2.4,0,4.79,0,7.18,0s3.61,1.24,3.62,3.6q0,7.11,0,14.23c0,2.37-1.29,3.65-3.7,3.66H25.56a3.32,3.32,0,0,1-3.67-3.69q0-7.11,0-14.23A3.22,3.22,0,0,1,25.45,22C27.9,22,30.36,22,32.81,22Zm0,18.36a7.65,7.65,0,0,0,7.64-7.68,7.67,7.67,0,1,0-7.64,7.68Z"/><path class="cls-2" d="M32.77,40.34a7.68,7.68,0,0,1-7.69-7.65,7.67,7.67,0,0,1,15.33,0A7.65,7.65,0,0,1,32.77,40.34Zm0-1.92a5.73,5.73,0,0,0,5.75-5.73,5.75,5.75,0,1,0-5.75,5.73Z"/><path class="cls-1" d="M32.74,38.42A5.76,5.76,0,0,1,27,32.67a5.75,5.75,0,0,1,11.49,0A5.73,5.73,0,0,1,32.74,38.42Z"/></g></g></svg>