<svg id="Layer_1" data-name="Layer 1" xmlns="http://www.w3.org/2000/svg" viewBox="0 0 789.53 248.09"><defs><style>.cls-1{fill:#66423b;}</style></defs><path class="cls-1" d="M728.14,249.57a26.54,26.54,0,0,0-11.31,6C710.36,261,705.28,267.6,703.21,276c-.93,3.77-1.22,7.7-2,11.51a40.15,40.15,0,0,1-11,20.38c-5.82,5.8-13,9.61-20.39,13.17a93.74,93.74,0,0,1-28,8.69,80,80,0,0,1-19,.61A90.62,90.62,0,0,1,599,325.26a66.21,66.21,0,0,1-21-12.8,212.09,212.09,0,0,1-16.32-16c-5.5-6.15-10.35-12.88-15.49-19.35-.56-.7-1.15-1.38-2-2.45v2.17c0,10.75-.08,21.49,0,32.23,0,4.26.28,8.59,3.41,12,1.61,1.77,3.23,3.54,4.82,5.34.62.71,1.18,1.48,2,2.54H536.08c-2.19,0-4.39,0-6.58,0-4.31.07-5.84-2.23-6.48-6a72.15,72.15,0,0,1-.5-9.09c-.29-7-.56-13.94-.87-20.91a13.37,13.37,0,0,0-.55-2.31c-2.2,3.41-4.19,6.65-6.34,9.8-10.3,15.11-24.14,25.49-42,29.53-16.35,3.68-32.05,1.42-46.05-8.35-6.75-4.72-10.67-11.65-12.3-19.65a83.59,83.59,0,0,1-1.71-14.78c-.34-18-.38-36.06-.54-54.1-.12-11.88-.13-23.76-.43-35.64-.16-6.4-1.13-12.72-5.72-17.73a39.4,39.4,0,0,0-5.09-4.36,32.11,32.11,0,0,0-3.63-2.08h34.46v2.54c.09,21.29.23,42.58.26,63.87q0,21.43-.21,42.85c-.08,7.45-.5,14.91,2.2,22.06,4.27,11.29,12.48,18.18,24.12,20.89,12.25,2.85,23.16-.57,33.27-7.58a89.21,89.21,0,0,0,15.76-13.3,59.77,59.77,0,0,0,14.58-28.33c2.27-10.9,1.06-21.9,1.06-32.87,0-6.57-.21-13.15-.18-19.72.06-10.18.61-20.38.26-30.54-.27-7.88-3.33-14.83-10-19.73a6.41,6.41,0,0,1-.82-1H542.5c.14,2.49.36,4.93.38,7.37.17,21.29.29,42.58.47,63.87,0,5.87.13,11.74.44,17.6.22,4.35,2.28,8.09,4.53,11.74A144.71,144.71,0,0,0,574,304.23c7.91,7.23,16.32,13.86,26.41,17.91a64,64,0,0,0,16.93,4.37c11.1,1.21,21.8.05,31.88-5a48.34,48.34,0,0,0,23.45-24.83c2.13-4.94,3.84-10.08,3.87-15.51,0-6.28-2.34-11.8-6.14-16.75-5.08-6.63-11.92-10.88-19.32-14.4-11.28-5.36-22.62-10.6-33.81-16.15-7.93-3.93-14.65-9.36-18.45-17.66-3.56-7.79-4.61-15.79-1.13-23.89a24.34,24.34,0,0,1,8.49-10,64.94,64.94,0,0,1,23.46-11.11c12.08-2.79,23.77-1.29,35.1,3.51A74.83,74.83,0,0,1,688,190.33a47.9,47.9,0,0,1,4.09,5.23c-5.2,3.61-11.42,3.76-16.49.12-4-2.9-7.83-6.14-11.58-9.41a36.52,36.52,0,0,0-19.11-8.79c-5.9-.89-11.72-.8-17.3,1.68-7.13,3.16-12.92,10.23-12.52,18.75a18.65,18.65,0,0,0,6.66,13.34c7.24,6.49,16,10.32,24.76,14.31,10.58,4.84,21.17,9.67,31.66,14.7,9.39,4.5,15.85,12,20.62,21.08.68,1.3,1.44,2.56,2.26,4,3.27-2.56,6.53-5.07,9.73-7.65,5.42-4.35,10.74-8.83,16.22-13.1,2.62-2,3-5,3.49-7.77,2.75-14.92,8.18-28.72,17.69-40.61,10.78-13.47,24.83-21.91,41.59-26a75.5,75.5,0,0,1,23.83-2,65.29,65.29,0,0,1,57.91,46.62c1.3,4.26,0,6.76-4.32,7.6-11.87,2.33-23.74,4.71-35.66,6.79-6.6,1.15-13.28,1.84-20,2.55-7.66.83-15.35,1.47-23,2.15-6.71.6-13.43,1.08-20.13,1.72-4.81.45-9.63.88-14.37,1.71-3.09.54-4.5,2.65-4.4,5.69.22,7.26.39,14.52.87,21.76.69,10.43,3.6,20.14,10.09,28.56,5.27,6.84,11.94,12,19.29,16.37A66.78,66.78,0,0,0,834.39,317a162.16,162.16,0,0,0,52.72-26.51,6.68,6.68,0,0,1,2.61-1.41c-1.5,2.13-2.76,4.49-4.54,6.34-15.55,16.21-33.7,28-56,32.79a105.67,105.67,0,0,1-28.74,2c-11-.65-21.9-2.39-31.76-8a74.87,74.87,0,0,1-20.4-16.71c-6.95-8.12-12.41-17.09-15.32-27.36-1.62-5.73-2.35-11.72-3.31-17.62-.49-3-.59-6.13-.92-9.2A8.45,8.45,0,0,0,728.14,249.57Zm23.33-16.12a19.68,19.68,0,0,0,2.55,0c6.56-.95,13.1-2.13,19.68-2.85,8.3-.92,16.64-1.48,25-2.17,6.93-.58,13.85-1.18,20.78-1.69,8.27-.61,16.55-1.15,24.82-1.71,3-.2,5.39-1.92,5.42-4.51a48.76,48.76,0,0,0-.74-10.88c-2-9.13-7.39-16.21-14.63-21.91-12.11-9.54-25.51-12.84-40.47-8a58,58,0,0,0-25.54,16.18,63.29,63.29,0,0,0-10.68,16A70.22,70.22,0,0,0,751.47,233.45Z" transform="translate(-131.95 -168)"/><path class="cls-1" d="M301.19,328.92h-45c1.79-1.45,3.5-2.7,5-4.12,5.43-5,7.84-11.33,7.89-18.54.12-17.38.1-34.75.13-52.13,0-.28-.05-.56-.11-1.26-2.51,1.9-4.87,3.6-7.13,5.41a47.74,47.74,0,0,1-24.12,10.38c-13.52,1.71-25.88-1.61-36.46-10.26a45.29,45.29,0,0,1-16.36-28c-2.48-14,.88-26.64,9.18-38,5.14-7,12.26-11.63,20-15.38a61.54,61.54,0,0,1,32.86-5.85c9.32.83,18.45,2.82,26.32,8.55a34,34,0,0,1,13.45,20.59,71.09,71.09,0,0,1,1.73,15.18c.17,23.62,0,47.24.1,70.86,0,6.92.08,13.86.45,20.77s2.58,13.14,7.56,18.13A56.6,56.6,0,0,0,301.19,328.92Zm-69.43-62.74c3.8-.57,7.67-.83,11.38-1.75,14.08-3.48,23.77-11.84,28-26a4.94,4.94,0,0,0,.11-1.88q-.81-7.95-1.67-15.88c-.68-6.11-1.34-12.22-2.13-18.32-1.29-9.86-6.81-16.76-15.42-21.33-8.15-4.33-16.87-5.12-25.89-4a42.72,42.72,0,0,0-24.75,12,45,45,0,0,0-10.88,16.76c-2.78,7.39-4.19,15-2.77,22.83a43.58,43.58,0,0,0,10.78,21.89C207.4,260.4,218.26,265.87,231.76,266.18Z" transform="translate(-131.95 -168)"/><path class="cls-1" d="M191.36,328.9h-44a81.16,81.16,0,0,0,6.5-5,22.5,22.5,0,0,0,7-16.76q.18-51.78,0-103.56c0-6.35-1.06-12.7-5.37-17.94-3.14-3.82-7.33-6-11.68-8-3.6-1.66-7.26-3.17-10.89-4.75a6.94,6.94,0,0,1-.93-.69h47.7a53.56,53.56,0,0,1,.74,6.43c0,40.75.11,81.49,0,122.23A34.89,34.89,0,0,0,185.51,319C187.42,322.28,189.34,325.5,191.36,328.9Z" transform="translate(-131.95 -168)"/><path class="cls-1" d="M391.79,327.17H352.28c1.37-1.88,2.73-3.54,3.86-5.34A25.51,25.51,0,0,0,360,308.09q.12-46.23.15-92.46c0-6.26-.44-12.47-2.44-18.47-3.28-9.85-10.38-15.75-20-18.75a49.5,49.5,0,0,0-12.86-2.51c-10.24-.35-19.22,3.53-27.35,9.53-1.73,1.28-3.4,2.66-5.09,4l-.47-.35c1-1.37,1.94-2.83,3.06-4.1,6.94-7.86,16.15-11.46,26-13.88a54.62,54.62,0,0,1,18.15-1.62c12.66,1.17,23.92,5.73,32.55,15.38a24.14,24.14,0,0,1,6.08,15.9c.35,16.82.61,33.64.91,50.46q.19,11.13.38,22.26c.15,10,.13,19.93.48,29.89.28,7.85,2.18,15.21,8.41,20.72C389,325.05,390.21,325.91,391.79,327.17Z" transform="translate(-131.95 -168)"/><path class="cls-1" d="M816.47,392.24c-.84-2.85-.84-2.85,1.81-3.88,1.88-.73,3.76-1.46,5.62-2.23,1.66-.7,2.57-.05,2.92,1.57.24,1.15.37,2.33.52,3.3,1.31-1.82,2.45-4,4.16-5.67,5-4.8,13.94-4.71,16.56,3.78,1.23,4,2.26,8,3.38,12,.81,2.88,1,3,4,2.29.9,3.49.75,3.93-2.64,4.88a13.47,13.47,0,0,1-4.85.45c-1.84-.17-2.82-1.54-3.29-3.34-1.09-4.23-2.25-8.45-3.39-12.67a11.87,11.87,0,0,0-.4-1.19c-1.67-4.91-5.08-4.1-7.63-1.95-1.61,1.36-2.69,3.37-3.92,5.14a2.17,2.17,0,0,0-.25,1.6c1.05,4,2.15,8,3.32,12,.15.51.92,1.26,1.29,1.21,2.31-.36,2.64,1.12,2.87,3.05l-12.87,3.46c-.34-1-.67-1.94-1.07-3.1,2.84-.46,2.68-2.13,2.08-4.2-1.27-4.33-2.35-8.71-3.54-13.07C820.2,392.24,820.18,392.25,816.47,392.24Z" transform="translate(-131.95 -168)"/><path class="cls-1" d="M724.73,394.51a15.15,15.15,0,0,1-14.93-14.28A14.79,14.79,0,0,1,722,365.09a15.12,15.12,0,0,1,16.3,8.33,6.67,6.67,0,0,1,.09,6.07,3,3,0,0,1-4,1.47c-2.08-.86-3.26-2.73-2.53-4.39s1.55-3.52-.21-4.94c-2.14-1.74-4.61-2.7-7.37-1.32-3.82,1.92-7.7,9.93-6.83,14.06.93,4.4,5,6.9,9.84,5.6,2.13-.57,2.28.78,2.71,1.92.58,1.52-.8,1.74-1.73,2A28.92,28.92,0,0,1,724.73,394.51Z" transform="translate(-131.95 -168)"/><path class="cls-1" d="M905.73,337.74a11.89,11.89,0,0,1,3,.88c2.11,1.25,2.58,3.27,1.37,4.93-1.7,2.33-3.49,2.62-5.67.88-1.29-1-2.44-1.3-4-.22-3.17,2.21-4.1,6-1.94,9.1a17,17,0,0,0,9.32,7.11,7.17,7.17,0,0,0,9.43-7.06c0-.87.08-2.06.62-2.5a3.66,3.66,0,0,1,2.74-.49c.39.07.79,1.25.82,1.94a14,14,0,0,1-4.38,10.74c-4,4-8.86,5.64-14.37,3.91-5.7-1.79-9.13-5.76-10.56-11.68-1.68-7,3.91-15.35,10.69-17C903.72,338,904.62,337.93,905.73,337.74Z" transform="translate(-131.95 -168)"/><path class="cls-1" d="M763.65,406.49c-2.48,3.44-6.06,4.14-9.44,1.95-1.92-1.25-2.54-3-1.77-5.52,2.87-9.29,5.73-18.58,8.69-27.84,1.08-3.36.89-3.48-2.19-5.08.17-.6.36-1.24.63-2.16,3.18.54,6.34,1,9.46,1.65,1.12.24,1.45,1.1,1,2.44-3.07,9.6-6,19.24-9,28.86C759.74,404.88,759.71,404.87,763.65,406.49Z" transform="translate(-131.95 -168)"/><path class="cls-1" d="M784.07,415v-3c2.77-.41,2.92-.61,3.29-4.57q.64-6.9,1.28-13.81c.21-2.32-.22-2.82-2.9-3.23.11-.52.24-1,.31-1.54s.08-1,.15-1.81c3.06.2,6.08.27,9.06.69.57.08,1.41,1.55,1.35,2.32-.42,5.94-1,11.86-1.61,17.79a10.16,10.16,0,0,0-.34,2.68c.16.78.93,1.42,1.36,2.16s1,1.46,1,2.14c0,.45-1.13,1.2-1.71,1.17C791.6,415.74,787.91,415.35,784.07,415Z" transform="translate(-131.95 -168)"/><path class="cls-1" d="M864.87,374.57c-.66-.88-1.26-1.7-1.88-2.52,2.15-1.73,4.21-3.41,6.31-5.05,1.56-1.21,2.5-1,3.79.85,3.7,5.4,7.4,10.8,11,16.26a2.67,2.67,0,0,0,2.93,1.34c.86-.08,1.83,1,3.05,1.78L879,394.84c-.78-1.21-2.68-2.06-.64-3.87.29-.26.18-1.38-.12-1.85-3.14-4.78-6.38-9.48-9.52-14.25C867.52,373.13,866.29,373.64,864.87,374.57Z" transform="translate(-131.95 -168)"/><path class="cls-1" d="M867.19,360.65a4.4,4.4,0,0,1-4.52,4.66c-2.44,0-5-2.38-4.74-4.68.34-2.66,1.7-4.56,4.75-4.56C865.52,356.06,867.2,357.78,867.19,360.65Z" transform="translate(-131.95 -168)"/><path class="cls-1" d="M797.6,378.27a4.6,4.6,0,0,1-4.66,4.64,5,5,0,0,1-4.56-4.69,4.74,4.74,0,0,1,4.67-4.65A4.53,4.53,0,0,1,797.6,378.27Z" transform="translate(-131.95 -168)"/></svg>